<mxfile host="app.diagrams.net" modified="2021-07-18T07:47:34.891Z" agent="5.0 (Windows NT 10.0; Win64; x64) AppleWebKit/537.36 (KHTML, like Gecko) Chrome/91.0.4472.114 Safari/537.36" etag="dgO4dTM_TTwYeOKIvjan" version="14.9.0" type="github">
  <diagram id="C5RBs43oDa-KdzZeNtuy" name="Page-1">
    <mxGraphModel dx="1865" dy="500" grid="1" gridSize="10" guides="1" tooltips="1" connect="1" arrows="1" fold="1" page="1" pageScale="1" pageWidth="827" pageHeight="1169" math="0" shadow="0">
      <root>
        <mxCell id="WIyWlLk6GJQsqaUBKTNV-0" />
        <mxCell id="WIyWlLk6GJQsqaUBKTNV-1" parent="WIyWlLk6GJQsqaUBKTNV-0" />
        <mxCell id="3Fyzb3w3JVutWaXi3XTW-13" value="" style="group;shadow=1;sketch=1;fontSize=18;" vertex="1" connectable="0" parent="WIyWlLk6GJQsqaUBKTNV-1">
          <mxGeometry x="-720" y="150" width="920" height="170" as="geometry" />
        </mxCell>
        <mxCell id="3Fyzb3w3JVutWaXi3XTW-3" value="库存锁定" style="whiteSpace=wrap;rounded=1;shadow=1;strokeWidth=1;glass=0;html=1;labelBorderColor=none;sketch=1;fontSize=18;" vertex="1" parent="3Fyzb3w3JVutWaXi3XTW-13">
          <mxGeometry x="200" width="120" height="60" as="geometry" />
        </mxCell>
        <mxCell id="3Fyzb3w3JVutWaXi3XTW-5" value="生成订单" style="whiteSpace=wrap;rounded=1;shadow=1;strokeWidth=1;glass=0;html=1;labelBorderColor=none;sketch=1;fontSize=18;" vertex="1" parent="3Fyzb3w3JVutWaXi3XTW-13">
          <mxGeometry x="400" width="120" height="60" as="geometry" />
        </mxCell>
        <mxCell id="3Fyzb3w3JVutWaXi3XTW-6" value="" style="edgeStyle=orthogonalEdgeStyle;rounded=0;orthogonalLoop=1;jettySize=auto;html=1;labelBorderColor=none;shadow=1;sketch=1;fontSize=18;" edge="1" parent="3Fyzb3w3JVutWaXi3XTW-13" source="3Fyzb3w3JVutWaXi3XTW-3" target="3Fyzb3w3JVutWaXi3XTW-5">
          <mxGeometry relative="1" as="geometry" />
        </mxCell>
        <mxCell id="3Fyzb3w3JVutWaXi3XTW-7" value="短信通知" style="whiteSpace=wrap;rounded=1;shadow=1;strokeWidth=1;glass=0;html=1;labelBorderColor=none;sketch=1;fontSize=18;" vertex="1" parent="3Fyzb3w3JVutWaXi3XTW-13">
          <mxGeometry x="600" width="120" height="60" as="geometry" />
        </mxCell>
        <mxCell id="3Fyzb3w3JVutWaXi3XTW-8" value="" style="edgeStyle=orthogonalEdgeStyle;rounded=0;orthogonalLoop=1;jettySize=auto;html=1;labelBorderColor=none;shadow=1;sketch=1;fontSize=18;" edge="1" parent="3Fyzb3w3JVutWaXi3XTW-13" source="3Fyzb3w3JVutWaXi3XTW-5" target="3Fyzb3w3JVutWaXi3XTW-7">
          <mxGeometry relative="1" as="geometry" />
        </mxCell>
        <mxCell id="3Fyzb3w3JVutWaXi3XTW-9" value="更新统计数据" style="whiteSpace=wrap;rounded=1;shadow=1;strokeWidth=1;glass=0;html=1;labelBorderColor=none;sketch=1;fontSize=18;" vertex="1" parent="3Fyzb3w3JVutWaXi3XTW-13">
          <mxGeometry x="800" width="120" height="60" as="geometry" />
        </mxCell>
        <mxCell id="3Fyzb3w3JVutWaXi3XTW-10" value="" style="edgeStyle=orthogonalEdgeStyle;rounded=0;orthogonalLoop=1;jettySize=auto;html=1;labelBorderColor=none;shadow=1;sketch=1;fontSize=18;" edge="1" parent="3Fyzb3w3JVutWaXi3XTW-13" source="3Fyzb3w3JVutWaXi3XTW-7" target="3Fyzb3w3JVutWaXi3XTW-9">
          <mxGeometry relative="1" as="geometry" />
        </mxCell>
        <mxCell id="3Fyzb3w3JVutWaXi3XTW-12" value="" style="edgeStyle=orthogonalEdgeStyle;rounded=0;orthogonalLoop=1;jettySize=auto;html=1;shadow=1;sketch=1;fontSize=18;" edge="1" parent="3Fyzb3w3JVutWaXi3XTW-13" source="3Fyzb3w3JVutWaXi3XTW-11" target="3Fyzb3w3JVutWaXi3XTW-3">
          <mxGeometry relative="1" as="geometry" />
        </mxCell>
        <mxCell id="3Fyzb3w3JVutWaXi3XTW-11" value="风险控制" style="whiteSpace=wrap;rounded=1;shadow=1;strokeWidth=1;glass=0;html=1;labelBorderColor=none;sketch=1;fontSize=18;" vertex="1" parent="3Fyzb3w3JVutWaXi3XTW-13">
          <mxGeometry width="120" height="60" as="geometry" />
        </mxCell>
        <mxCell id="3Fyzb3w3JVutWaXi3XTW-21" value="" style="rounded=0;whiteSpace=wrap;html=1;shadow=1;fillColor=none;sketch=1;fontSize=18;" vertex="1" parent="3Fyzb3w3JVutWaXi3XTW-13">
          <mxGeometry x="-10" y="-60" width="340" height="230" as="geometry" />
        </mxCell>
        <mxCell id="3Fyzb3w3JVutWaXi3XTW-22" value="只要这两步就可以决定秒杀是否成功" style="text;html=1;strokeColor=#36393d;fillColor=#eeeeee;align=center;verticalAlign=middle;whiteSpace=wrap;rounded=0;shadow=1;sketch=1;fontSize=18;" vertex="1" parent="3Fyzb3w3JVutWaXi3XTW-13">
          <mxGeometry x="17" y="80" width="290" height="50" as="geometry" />
        </mxCell>
        <mxCell id="3Fyzb3w3JVutWaXi3XTW-14" value="100ms" style="text;html=1;strokeColor=none;fillColor=none;align=center;verticalAlign=middle;whiteSpace=wrap;rounded=0;shadow=1;sketch=1;fontSize=18;" vertex="1" parent="WIyWlLk6GJQsqaUBKTNV-1">
          <mxGeometry x="-482" y="120" width="40" height="20" as="geometry" />
        </mxCell>
        <mxCell id="3Fyzb3w3JVutWaXi3XTW-15" value="100ms" style="text;html=1;strokeColor=none;fillColor=none;align=center;verticalAlign=middle;whiteSpace=wrap;rounded=0;shadow=1;sketch=1;fontSize=18;" vertex="1" parent="WIyWlLk6GJQsqaUBKTNV-1">
          <mxGeometry x="-280" y="120" width="40" height="20" as="geometry" />
        </mxCell>
        <mxCell id="3Fyzb3w3JVutWaXi3XTW-16" value="100ms" style="text;html=1;strokeColor=none;fillColor=none;align=center;verticalAlign=middle;whiteSpace=wrap;rounded=0;shadow=1;sketch=1;fontSize=18;" vertex="1" parent="WIyWlLk6GJQsqaUBKTNV-1">
          <mxGeometry x="-77" y="120" width="40" height="20" as="geometry" />
        </mxCell>
        <mxCell id="3Fyzb3w3JVutWaXi3XTW-17" value="100ms" style="text;html=1;strokeColor=none;fillColor=none;align=center;verticalAlign=middle;whiteSpace=wrap;rounded=0;shadow=1;sketch=1;fontSize=18;" vertex="1" parent="WIyWlLk6GJQsqaUBKTNV-1">
          <mxGeometry x="125" y="120" width="40" height="20" as="geometry" />
        </mxCell>
        <mxCell id="3Fyzb3w3JVutWaXi3XTW-19" value="100ms" style="text;html=1;strokeColor=none;fillColor=none;align=center;verticalAlign=middle;whiteSpace=wrap;rounded=0;shadow=1;sketch=1;fontSize=18;" vertex="1" parent="WIyWlLk6GJQsqaUBKTNV-1">
          <mxGeometry x="-685" y="120" width="40" height="20" as="geometry" />
        </mxCell>
        <mxCell id="3Fyzb3w3JVutWaXi3XTW-23" value="" style="rounded=0;whiteSpace=wrap;html=1;shadow=1;fillColor=none;fontSize=18;" vertex="1" parent="WIyWlLk6GJQsqaUBKTNV-1">
          <mxGeometry x="-350" y="90" width="560" height="230" as="geometry" />
        </mxCell>
        <mxCell id="3Fyzb3w3JVutWaXi3XTW-25" value="这三步不一定要在秒杀请求中进行处理" style="text;html=1;strokeColor=#36393d;fillColor=#eeeeee;align=center;verticalAlign=middle;whiteSpace=wrap;rounded=0;shadow=1;sketch=1;fontSize=18;" vertex="1" parent="WIyWlLk6GJQsqaUBKTNV-1">
          <mxGeometry x="-215.5" y="230" width="317" height="40" as="geometry" />
        </mxCell>
      </root>
    </mxGraphModel>
  </diagram>
</mxfile>
